<svg width="180" height="55" viewBox="0 0 180 55" fill="none" xmlns="http://www.w3.org/2000/svg">
<rect x="0.5" y="0.5" width="179" height="54" rx="9.5" fill="black" stroke="#616161"/>
<path d="M44.1274 40.645C42.4532 42.2679 40.6253 42.0117 38.8657 41.2429C37.0037 40.4571 35.2953 40.4229 33.3307 41.2429C30.8707 42.3021 29.5724 41.9946 28.1032 40.645C19.7666 32.0521 20.9966 18.9662 30.4607 18.4879C32.767 18.6075 34.3728 19.7521 35.7224 19.8546C37.7382 19.4446 39.6687 18.2658 41.8212 18.4196C44.4007 18.6246 46.3482 19.6496 47.6295 21.4946C42.2995 24.6892 43.5637 31.7104 48.4495 33.675C47.4757 36.2375 46.2116 38.7829 44.1103 40.6621L44.1274 40.645ZM35.5516 18.3854C35.2953 14.5758 38.3874 11.4325 41.9407 11.125C42.4362 15.5325 37.9432 18.8125 35.5516 18.3854Z" fill="white"/>
<path d="M68.4375 17.1504V16.2129H69.5801C70.0762 16.2129 70.4824 16.0723 70.7988 15.791C71.1191 15.5059 71.2793 15.1426 71.2793 14.7012C71.2793 14.2715 71.1309 13.9277 70.834 13.6699C70.5371 13.4121 70.125 13.2832 69.5977 13.2832C69.0742 13.2832 68.6504 13.4102 68.3262 13.6641C68.0059 13.9141 67.8242 14.2637 67.7812 14.7129H66.7559C66.8105 13.9785 67.0938 13.4004 67.6055 12.9785C68.1211 12.5566 68.7988 12.3457 69.6387 12.3457C70.4316 12.3457 71.082 12.5586 71.5898 12.9844C72.0977 13.4062 72.3516 13.9473 72.3516 14.6074C72.3516 15.0684 72.2109 15.4805 71.9297 15.8438C71.6523 16.2031 71.2891 16.4375 70.8398 16.5469V16.6406C71.3945 16.6992 71.8457 16.9141 72.1934 17.2852C72.541 17.6523 72.7148 18.1309 72.7148 18.7207C72.7148 19.416 72.4219 20.0039 71.8359 20.4844C71.25 20.9609 70.5312 21.1992 69.6797 21.1992C68.7852 21.1992 68.0547 20.9805 67.4883 20.543C66.9258 20.1016 66.625 19.5195 66.5859 18.7969H67.6055C67.6523 19.2422 67.8613 19.5977 68.2324 19.8633C68.6074 20.1289 69.0859 20.2617 69.668 20.2617C70.2578 20.2617 70.7324 20.1152 71.0918 19.8223C71.4512 19.5293 71.6309 19.1523 71.6309 18.6914C71.6309 18.2109 71.4551 17.834 71.1035 17.5605C70.752 17.2871 70.2598 17.1504 69.627 17.1504H68.4375ZM76.3125 20.2266C76.832 20.2266 77.2617 20.0762 77.6016 19.7754C77.9453 19.4746 78.1172 19.0977 78.1172 18.6445V18.0645L76.418 18.1758C75.9414 18.207 75.5918 18.3066 75.3691 18.4746C75.1465 18.6426 75.0352 18.8867 75.0352 19.207C75.0352 19.5234 75.1543 19.7734 75.3926 19.957C75.6309 20.1367 75.9375 20.2266 76.3125 20.2266ZM76.125 21.1113C75.5039 21.1113 74.9922 20.9414 74.5898 20.6016C74.1914 20.2578 73.9922 19.8008 73.9922 19.2305C73.9922 18.668 74.1914 18.2266 74.5898 17.9062C74.9883 17.5859 75.5566 17.4043 76.2949 17.3613L78.1172 17.25V16.6758C78.1172 16.2852 77.9961 15.9863 77.7539 15.7793C77.5117 15.5723 77.1562 15.4688 76.6875 15.4688C76.3086 15.4688 75.9941 15.5371 75.7441 15.6738C75.4941 15.8105 75.334 16.0039 75.2637 16.2539H74.2441C74.3105 15.75 74.5703 15.3438 75.0234 15.0352C75.4805 14.7266 76.0469 14.5723 76.7227 14.5723C77.4883 14.5723 78.0801 14.7578 78.498 15.1289C78.916 15.5 79.125 16.0156 79.125 16.6758V21H78.1641V20.0684H78.0703C77.8672 20.4043 77.5977 20.6621 77.2617 20.8418C76.9258 21.0215 76.5469 21.1113 76.125 21.1113ZM85.1426 15.5273H82.1074V21H81.0996V14.6836H85.1426V15.5273ZM89.7539 14.5723C90.5586 14.5723 91.2012 14.8691 91.6816 15.4629C92.166 16.0566 92.4082 16.8496 92.4082 17.8418C92.4082 18.8301 92.166 19.623 91.6816 20.2207C91.1973 20.8145 90.5547 21.1113 89.7539 21.1113C89.3047 21.1113 88.9062 21.0195 88.5586 20.8359C88.2109 20.6484 87.9512 20.3867 87.7793 20.0508H87.6855V23.1094H86.6777V14.6836H87.6387V15.7383H87.7324C87.9355 15.375 88.2148 15.0898 88.5703 14.8828C88.9297 14.6758 89.3242 14.5723 89.7539 14.5723ZM89.5137 20.2031C90.0918 20.2031 90.5449 19.9941 90.873 19.5762C91.2012 19.1582 91.3652 18.5801 91.3652 17.8418C91.3652 17.1035 91.2012 16.5254 90.873 16.1074C90.5488 15.6895 90.0977 15.4805 89.5195 15.4805C88.9492 15.4805 88.4961 15.6934 88.1602 16.1191C87.8242 16.541 87.6562 17.1152 87.6562 17.8418C87.6562 18.5645 87.8223 19.1387 88.1543 19.5645C88.4902 19.9902 88.9434 20.2031 89.5137 20.2031ZM94.418 23.2852C94.2578 23.2852 94.1074 23.2734 93.9668 23.25V22.3887C94.0684 22.4082 94.209 22.418 94.3887 22.418C94.6816 22.418 94.9141 22.3398 95.0859 22.1836C95.2617 22.0273 95.416 21.7598 95.5488 21.3809L95.666 21.0059L93.3281 14.6836H94.418L96.1523 19.8809H96.2461L97.9746 14.6836H99.0469L96.5801 21.3867C96.3105 22.1172 96.0234 22.6152 95.7188 22.8809C95.4141 23.1504 94.9805 23.2852 94.418 23.2852ZM102.422 21.1055C101.73 21.1055 101.152 20.9492 100.688 20.6367C100.227 20.3203 99.9688 19.9023 99.9141 19.3828H100.951C101.014 19.6562 101.174 19.8711 101.432 20.0273C101.693 20.1797 102.023 20.2559 102.422 20.2559C102.879 20.2559 103.24 20.1582 103.506 19.9629C103.771 19.7676 103.904 19.5098 103.904 19.1895C103.904 18.4902 103.41 18.1406 102.422 18.1406H101.438V17.2969H102.422C103.25 17.2969 103.664 16.9824 103.664 16.3535C103.664 16.0762 103.557 15.8535 103.342 15.6855C103.127 15.5137 102.82 15.4277 102.422 15.4277C102.043 15.4277 101.725 15.5039 101.467 15.6562C101.209 15.8086 101.061 16.0117 101.021 16.2656H100.025C100.092 15.7461 100.342 15.334 100.775 15.0293C101.209 14.7246 101.758 14.5723 102.422 14.5723C103.121 14.5723 103.668 14.7285 104.062 15.041C104.461 15.3535 104.66 15.7656 104.66 16.2773C104.66 16.5938 104.564 16.877 104.373 17.127C104.186 17.377 103.939 17.5371 103.635 17.6074V17.7012C104.049 17.791 104.363 17.9609 104.578 18.2109C104.797 18.4609 104.906 18.7695 104.906 19.1367C104.906 19.7227 104.676 20.1973 104.215 20.5605C103.754 20.9238 103.156 21.1055 102.422 21.1055ZM107.607 21H106.6V14.6836H107.607V19.3945H107.701L110.848 14.6836H111.855V21H110.848V16.2891H110.754L107.607 21ZM118.441 14.6836V15.5273H116.391V21H115.383V15.5273H113.332V14.6836H118.441ZM122.203 15.4629C121.699 15.4629 121.285 15.6328 120.961 15.9727C120.637 16.3125 120.455 16.7617 120.416 17.3203H123.896C123.885 16.7617 123.725 16.3125 123.416 15.9727C123.107 15.6328 122.703 15.4629 122.203 15.4629ZM123.867 19.3652H124.875C124.723 19.9121 124.412 20.3398 123.943 20.6484C123.479 20.957 122.902 21.1113 122.215 21.1113C121.34 21.1113 120.646 20.8184 120.135 20.2324C119.623 19.6426 119.367 18.8477 119.367 17.8477C119.367 16.8516 119.625 16.0566 120.141 15.4629C120.656 14.8691 121.348 14.5723 122.215 14.5723C123.066 14.5723 123.736 14.8555 124.225 15.4219C124.713 15.9883 124.957 16.7637 124.957 17.748V18.1348H120.416V18.1816C120.443 18.8066 120.619 19.3027 120.943 19.6699C121.271 20.0371 121.703 20.2207 122.238 20.2207C123.055 20.2207 123.598 19.9355 123.867 19.3652ZM132.586 15.5273H131.045V17.3086H132.422C133.215 17.3086 133.611 17.0078 133.611 16.4062C133.611 16.1328 133.525 15.918 133.354 15.7617C133.186 15.6055 132.93 15.5273 132.586 15.5273ZM132.51 18.1523H131.045V20.1562H132.703C133.09 20.1562 133.383 20.0723 133.582 19.9043C133.785 19.7324 133.887 19.4863 133.887 19.166C133.887 18.8184 133.771 18.5625 133.541 18.3984C133.314 18.2344 132.971 18.1523 132.51 18.1523ZM130.037 21V14.6836H132.715C133.305 14.6836 133.768 14.8301 134.104 15.123C134.439 15.4121 134.607 15.8047 134.607 16.3008C134.607 16.6133 134.508 16.8984 134.309 17.1562C134.113 17.4102 133.869 17.5684 133.576 17.6309V17.7246C133.975 17.7793 134.293 17.9414 134.531 18.2109C134.77 18.4766 134.889 18.8008 134.889 19.1836C134.889 19.7383 134.697 20.1797 134.314 20.5078C133.932 20.8359 133.402 21 132.727 21H130.037Z" fill="white"/>
<path d="M75.8613 43L74.5869 39.3701H69.542L68.2676 43H66.6064L71.2822 30.3174H72.8467L77.5225 43H75.8613ZM71.9941 32.3652L70.0078 38.0254H74.1211L72.1348 32.3652H71.9941ZM84.167 33.3584C85.374 33.3584 86.3379 33.8037 87.0586 34.6943C87.7852 35.585 88.1484 36.7744 88.1484 38.2627C88.1484 39.7451 87.7852 40.9346 87.0586 41.8311C86.332 42.7217 85.3682 43.167 84.167 43.167C83.4932 43.167 82.8955 43.0293 82.374 42.7539C81.8525 42.4727 81.4629 42.0801 81.2051 41.5762H81.0645V46.1641H79.5527V33.5254H80.9941V35.1074H81.1348C81.4395 34.5625 81.8584 34.1348 82.3916 33.8242C82.9307 33.5137 83.5225 33.3584 84.167 33.3584ZM83.8066 41.8047C84.6738 41.8047 85.3535 41.4912 85.8457 40.8643C86.3379 40.2373 86.584 39.3701 86.584 38.2627C86.584 37.1553 86.3379 36.2881 85.8457 35.6611C85.3594 35.0342 84.6826 34.7207 83.8154 34.7207C82.96 34.7207 82.2803 35.04 81.7764 35.6787C81.2725 36.3115 81.0205 37.1729 81.0205 38.2627C81.0205 39.3467 81.2695 40.208 81.7676 40.8467C82.2715 41.4854 82.9512 41.8047 83.8066 41.8047ZM95.1357 33.3584C96.3428 33.3584 97.3066 33.8037 98.0273 34.6943C98.7539 35.585 99.1172 36.7744 99.1172 38.2627C99.1172 39.7451 98.7539 40.9346 98.0273 41.8311C97.3008 42.7217 96.3369 43.167 95.1357 43.167C94.4619 43.167 93.8643 43.0293 93.3428 42.7539C92.8213 42.4727 92.4316 42.0801 92.1738 41.5762H92.0332V46.1641H90.5215V33.5254H91.9629V35.1074H92.1035C92.4082 34.5625 92.8271 34.1348 93.3604 33.8242C93.8994 33.5137 94.4912 33.3584 95.1357 33.3584ZM94.7754 41.8047C95.6426 41.8047 96.3223 41.4912 96.8145 40.8643C97.3066 40.2373 97.5527 39.3701 97.5527 38.2627C97.5527 37.1553 97.3066 36.2881 96.8145 35.6611C96.3281 35.0342 95.6514 34.7207 94.7842 34.7207C93.9287 34.7207 93.249 35.04 92.7451 35.6787C92.2412 36.3115 91.9893 37.1729 91.9893 38.2627C91.9893 39.3467 92.2383 40.208 92.7363 40.8467C93.2402 41.4854 93.9199 41.8047 94.7754 41.8047ZM106.157 39.6865H107.757C107.856 40.3486 108.199 40.876 108.785 41.2686C109.371 41.6611 110.115 41.8574 111.018 41.8574C111.873 41.8574 112.579 41.6523 113.136 41.2422C113.698 40.8262 113.979 40.3047 113.979 39.6777C113.979 39.1387 113.774 38.6934 113.364 38.3418C112.954 37.9844 112.312 37.6943 111.439 37.4717L109.813 37.0498C108.665 36.7627 107.83 36.3467 107.309 35.8018C106.787 35.2568 106.526 34.5332 106.526 33.6309C106.526 32.5527 106.937 31.6826 107.757 31.0205C108.583 30.3525 109.667 30.0186 111.009 30.0186C112.233 30.0186 113.259 30.3467 114.085 31.0029C114.911 31.6592 115.356 32.5 115.421 33.5254H113.83C113.719 32.875 113.408 32.3682 112.898 32.0049C112.395 31.6357 111.747 31.4512 110.956 31.4512C110.112 31.4512 109.433 31.6475 108.917 32.04C108.407 32.4268 108.152 32.9395 108.152 33.5781C108.152 34.0762 108.34 34.4805 108.715 34.791C109.096 35.1016 109.723 35.3682 110.596 35.5908L111.923 35.9424C113.235 36.2705 114.176 36.71 114.744 37.2607C115.318 37.8115 115.605 38.5527 115.605 39.4844C115.605 40.6504 115.178 41.5791 114.322 42.2705C113.467 42.9561 112.315 43.2988 110.868 43.2988C109.526 43.2988 108.425 42.9707 107.563 42.3145C106.708 41.6582 106.239 40.7822 106.157 39.6865ZM118.682 31.0732H120.193V33.5254H122.303V34.791H120.193V40.1523C120.193 40.709 120.305 41.1133 120.527 41.3652C120.75 41.6172 121.107 41.7432 121.6 41.7432C121.816 41.7432 122.051 41.7314 122.303 41.708V42.9824C121.969 43.041 121.673 43.0703 121.415 43.0703C120.437 43.0703 119.736 42.874 119.314 42.4814C118.893 42.0889 118.682 41.4414 118.682 40.5391V34.791H117.152V33.5254H118.682V31.0732ZM131.531 41.8574C130.752 42.7305 129.688 43.167 128.341 43.167C126.993 43.167 125.927 42.7305 125.142 41.8574C124.362 40.9785 123.973 39.7803 123.973 38.2627C123.973 36.7393 124.362 35.541 125.142 34.668C125.921 33.7949 126.987 33.3584 128.341 33.3584C129.694 33.3584 130.761 33.7949 131.54 34.668C132.319 35.541 132.709 36.7393 132.709 38.2627C132.709 39.7803 132.316 40.9785 131.531 41.8574ZM126.267 40.8818C126.753 41.4971 127.444 41.8047 128.341 41.8047C129.237 41.8047 129.929 41.4971 130.415 40.8818C130.901 40.2607 131.145 39.3877 131.145 38.2627C131.145 37.1377 130.901 36.2676 130.415 35.6523C129.929 35.0312 129.237 34.7207 128.341 34.7207C127.444 34.7207 126.753 35.0312 126.267 35.6523C125.78 36.2676 125.537 37.1377 125.537 38.2627C125.537 39.3877 125.78 40.2607 126.267 40.8818ZM135.082 43V33.5254H136.523V34.9316H136.664C136.805 34.4688 137.121 34.0908 137.613 33.7979C138.105 33.5049 138.665 33.3584 139.292 33.3584C139.579 33.3584 139.831 33.373 140.048 33.4023V34.9141C139.843 34.8555 139.521 34.8262 139.081 34.8262C138.36 34.8262 137.766 35.043 137.297 35.4766C136.828 35.9102 136.594 36.4609 136.594 37.1289V43H135.082ZM145.453 34.6943C144.697 34.6943 144.076 34.9492 143.59 35.459C143.104 35.9688 142.831 36.6426 142.772 37.4805H147.993C147.976 36.6426 147.735 35.9688 147.272 35.459C146.81 34.9492 146.203 34.6943 145.453 34.6943ZM147.949 40.5479H149.461C149.232 41.3682 148.767 42.0098 148.063 42.4727C147.366 42.9355 146.502 43.167 145.471 43.167C144.158 43.167 143.118 42.7275 142.351 41.8486C141.583 40.9639 141.199 39.7715 141.199 38.2715C141.199 36.7773 141.586 35.585 142.359 34.6943C143.133 33.8037 144.17 33.3584 145.471 33.3584C146.748 33.3584 147.753 33.7832 148.485 34.6328C149.218 35.4824 149.584 36.6455 149.584 38.1221V38.7021H142.772V38.7725C142.813 39.71 143.077 40.4541 143.563 41.0049C144.056 41.5557 144.703 41.8311 145.506 41.8311C146.73 41.8311 147.545 41.4033 147.949 40.5479Z" fill="white"/>
</svg>
