<svg width="180" height="55" viewBox="0 0 180 55" fill="none" xmlns="http://www.w3.org/2000/svg">
<rect x="0.5" y="0.5" width="179" height="54" rx="9.5" fill="black" stroke="#6B6B6B"/>
<g clip-path="url(#clip0_426_1512)">
<path d="M29.0109 25.7324L15.125 40.2087C15.2809 40.7586 15.5612 41.2657 15.9443 41.6913C16.3273 42.1169 16.8032 42.4497 17.3353 42.6643C17.8675 42.8789 18.4419 42.9696 19.0147 42.9294C19.5875 42.8892 20.1434 42.7193 20.6401 42.4325L36.2643 33.578L29.0109 25.7324Z" fill="#EA4335"/>
<path d="M43.0511 23.2718L36.2947 19.4209L28.6895 26.0617L36.3256 33.5573L43.0306 29.7477C43.6246 29.4382 44.1221 28.9728 44.4693 28.4021C44.8164 27.8313 44.9999 27.1768 44.9999 26.5097C44.9999 25.8425 44.8164 25.188 44.4693 24.6173C44.1221 24.0465 43.6246 23.5811 43.0306 23.2716L43.0511 23.2718Z" fill="#FBBC04"/>
<path d="M15.1243 12.7388C15.0404 13.0475 14.9986 13.3661 15 13.686V39.2612C15.0009 39.5809 15.0426 39.8993 15.1243 40.2085L29.4862 26.103L15.1243 12.7388Z" fill="#4285F4"/>
<path d="M29.1144 26.4737L36.2954 19.4209L20.6919 10.5251C20.1048 10.183 19.4371 10.0018 18.7568 10C17.0684 9.99674 15.5841 11.1117 15.125 12.7285L29.1144 26.4737Z" fill="#34A853"/>
</g>
<path d="M55.348 19.088H63.772V21.392H62.812V20H56.308V21.392H55.348V19.088ZM55.756 19.088C56.324 19.088 56.76 18.908 57.064 18.548C57.376 18.188 57.532 17.732 57.532 17.18V11.6H62.872V19.988H61.912V12.536H58.492V17.348C58.492 18.004 58.248 18.576 57.76 19.064C57.272 19.544 56.644 19.784 55.876 19.784H55.528L55.348 19.088H55.756ZM65.5332 15.764C65.5332 16.788 65.8532 17.628 66.4932 18.284C67.1332 18.932 67.9172 19.256 68.8452 19.256C69.7732 19.256 70.5572 18.932 71.1972 18.284C71.8372 17.628 72.1572 16.788 72.1572 15.764C72.1572 14.764 71.8372 13.94 71.1972 13.292C70.5572 12.644 69.7732 12.32 68.8452 12.32C67.9172 12.32 67.1332 12.644 66.4932 13.292C65.8532 13.94 65.5332 14.764 65.5332 15.764ZM64.5732 15.764C64.5732 15.132 64.6852 14.54 64.9092 13.988C65.1332 13.436 65.4372 12.972 65.8212 12.596C66.2052 12.212 66.6572 11.912 67.1772 11.696C67.7052 11.472 68.2612 11.36 68.8452 11.36C69.4292 11.36 69.9812 11.472 70.5012 11.696C71.0292 11.912 71.4852 12.212 71.8692 12.596C72.2532 12.972 72.5572 13.436 72.7812 13.988C73.0052 14.54 73.1172 15.132 73.1172 15.764C73.1172 16.404 73.0052 17.004 72.7812 17.564C72.5572 18.116 72.2532 18.588 71.8692 18.98C71.4852 19.364 71.0292 19.668 70.5012 19.892C69.9812 20.108 69.4292 20.216 68.8452 20.216C68.2612 20.216 67.7052 20.108 67.1772 19.892C66.6572 19.668 66.2052 19.364 65.8212 18.98C65.4372 18.588 65.1332 18.116 64.9092 17.564C64.6852 17.004 64.5732 16.404 64.5732 15.764ZM74.5942 18.068C74.2102 17.388 74.0182 16.628 74.0182 15.788C74.0262 14.948 74.2222 14.188 74.6062 13.508C74.9902 12.828 75.5102 12.3 76.1662 11.924C76.8302 11.548 77.5582 11.36 78.3502 11.36C79.2382 11.36 80.0422 11.596 80.7622 12.068C81.4822 12.532 82.0302 13.168 82.4062 13.976L81.4822 14.336C81.1942 13.712 80.7702 13.22 80.2102 12.86C79.6502 12.5 79.0302 12.32 78.3502 12.32C77.4062 12.32 76.6102 12.648 75.9622 13.304C75.3142 13.952 74.9902 14.78 74.9902 15.788C74.9902 16.788 75.3142 17.616 75.9622 18.272C76.6102 18.928 77.4062 19.256 78.3502 19.256C79.0462 19.256 79.6782 19.068 80.2462 18.692C80.8222 18.308 81.2502 17.788 81.5302 17.132L82.4542 17.48C82.1022 18.32 81.5542 18.988 80.8102 19.484C80.0742 19.972 79.2542 20.216 78.3502 20.216C77.5582 20.216 76.8302 20.028 76.1662 19.652C75.5102 19.276 74.9862 18.748 74.5942 18.068ZM89.7301 11.6V12.536H86.9701V20H86.0101V12.536H83.2501V11.6H89.7301ZM92.0185 20L93.4945 16.844L90.4465 11.6H91.5745L94.0225 15.92L96.0625 11.6H97.1905L93.1585 20H92.0185ZM98.2585 11.6H105.147V20H104.187V12.512H99.2185V20H98.2585V11.6ZM106.544 20V11.6H107.504V15.32H112.424V11.6H113.384V20H112.424V16.256H107.504V20H106.544ZM115.479 15.764C115.479 16.788 115.799 17.628 116.439 18.284C117.079 18.932 117.863 19.256 118.791 19.256C119.719 19.256 120.503 18.932 121.143 18.284C121.783 17.628 122.103 16.788 122.103 15.764C122.103 14.764 121.783 13.94 121.143 13.292C120.503 12.644 119.719 12.32 118.791 12.32C117.863 12.32 117.079 12.644 116.439 13.292C115.799 13.94 115.479 14.764 115.479 15.764ZM114.519 15.764C114.519 15.132 114.631 14.54 114.854 13.988C115.079 13.436 115.383 12.972 115.767 12.596C116.151 12.212 116.603 11.912 117.123 11.696C117.651 11.472 118.207 11.36 118.791 11.36C119.375 11.36 119.927 11.472 120.447 11.696C120.975 11.912 121.431 12.212 121.815 12.596C122.199 12.972 122.503 13.436 122.727 13.988C122.951 14.54 123.063 15.132 123.063 15.764C123.063 16.404 122.951 17.004 122.727 17.564C122.503 18.116 122.199 18.588 121.815 18.98C121.431 19.364 120.975 19.668 120.447 19.892C119.927 20.108 119.375 20.216 118.791 20.216C118.207 20.216 117.651 20.108 117.123 19.892C116.603 19.668 116.151 19.364 115.767 18.98C115.383 18.588 115.079 18.116 114.854 17.564C114.631 17.004 114.519 16.404 114.519 15.764ZM134.68 12.536H131.644V15.332H134.764C135.164 15.332 135.5 15.184 135.772 14.888C136.044 14.592 136.18 14.228 136.18 13.796C136.18 13.428 136.036 13.128 135.748 12.896C135.468 12.656 135.112 12.536 134.68 12.536ZM134.764 16.244H131.644V19.064H134.8C135.224 19.064 135.58 18.94 135.868 18.692C136.156 18.444 136.3 18.136 136.3 17.768C136.3 17.328 136.152 16.964 135.856 16.676C135.568 16.388 135.204 16.244 134.764 16.244ZM134.932 20H130.684V11.6H134.812C135.476 11.6 136.028 11.8 136.468 12.2C136.916 12.6 137.14 13.104 137.14 13.712C137.14 14.152 137.032 14.552 136.816 14.912C136.608 15.272 136.324 15.552 135.964 15.752C136.364 15.952 136.68 16.236 136.912 16.604C137.144 16.972 137.26 17.384 137.26 17.84C137.26 18.456 137.036 18.972 136.588 19.388C136.14 19.796 135.588 20 134.932 20Z" fill="white"/>
<path d="M58.564 33.956C57.604 34.928 57.124 36.17 57.124 37.682C57.124 39.194 57.604 40.442 58.564 41.426C59.524 42.398 60.7 42.884 62.092 42.884C63.388 42.884 64.504 42.482 65.44 41.678C66.376 40.862 66.892 39.806 66.988 38.51H61.624V37.16H68.482C68.494 37.34 68.5 37.598 68.5 37.934C68.5 39.146 68.212 40.244 67.636 41.228C67.06 42.2 66.286 42.962 65.314 43.514C64.342 44.054 63.268 44.324 62.092 44.324C61.216 44.324 60.382 44.162 59.59 43.838C58.81 43.502 58.132 43.046 57.556 42.47C56.98 41.894 56.524 41.192 56.188 40.364C55.852 39.524 55.684 38.63 55.684 37.682C55.684 36.734 55.852 35.846 56.188 35.018C56.524 34.178 56.98 33.47 57.556 32.894C58.132 32.318 58.81 31.868 59.59 31.544C60.382 31.208 61.216 31.04 62.092 31.04C63.34 31.04 64.474 31.376 65.494 32.048C66.526 32.72 67.306 33.632 67.834 34.784L66.538 35.414C66.13 34.502 65.524 33.788 64.72 33.272C63.928 32.744 63.052 32.48 62.092 32.48C60.7 32.48 59.524 32.972 58.564 33.956ZM72.2995 37.016C71.6395 37.652 71.3095 38.474 71.3095 39.482C71.3095 40.49 71.6395 41.318 72.2995 41.966C72.9715 42.602 73.7875 42.92 74.7475 42.92C75.7075 42.92 76.5175 42.602 77.1775 41.966C77.8495 41.318 78.1855 40.49 78.1855 39.482C78.1855 38.474 77.8495 37.652 77.1775 37.016C76.5175 36.368 75.7075 36.044 74.7475 36.044C73.7875 36.044 72.9715 36.368 72.2995 37.016ZM71.2735 42.956C70.3375 42.044 69.8695 40.886 69.8695 39.482C69.8695 38.078 70.3375 36.92 71.2735 36.008C72.2215 35.096 73.3795 34.64 74.7475 34.64C76.1155 34.64 77.2675 35.096 78.2035 36.008C79.1515 36.92 79.6255 38.078 79.6255 39.482C79.6255 40.886 79.1515 42.044 78.2035 42.956C77.2675 43.868 76.1155 44.324 74.7475 44.324C73.3795 44.324 72.2215 43.868 71.2735 42.956ZM83.4265 37.016C82.7665 37.652 82.4365 38.474 82.4365 39.482C82.4365 40.49 82.7665 41.318 83.4265 41.966C84.0985 42.602 84.9145 42.92 85.8745 42.92C86.8345 42.92 87.6445 42.602 88.3045 41.966C88.9765 41.318 89.3125 40.49 89.3125 39.482C89.3125 38.474 88.9765 37.652 88.3045 37.016C87.6445 36.368 86.8345 36.044 85.8745 36.044C84.9145 36.044 84.0985 36.368 83.4265 37.016ZM82.4005 42.956C81.4645 42.044 80.9965 40.886 80.9965 39.482C80.9965 38.078 81.4645 36.92 82.4005 36.008C83.3485 35.096 84.5065 34.64 85.8745 34.64C87.2425 34.64 88.3945 35.096 89.3305 36.008C90.2785 36.92 90.7525 38.078 90.7525 39.482C90.7525 40.886 90.2785 42.044 89.3305 42.956C88.3945 43.868 87.2425 44.324 85.8745 44.324C84.5065 44.324 83.3485 43.868 82.4005 42.956ZM99.2695 35.954C100.061 36.794 100.457 37.856 100.457 39.14C100.457 40.424 100.061 41.492 99.2695 42.344C98.4895 43.184 97.5235 43.604 96.3715 43.604C95.1835 43.604 94.1755 43.184 93.3475 42.344C92.5315 41.492 92.1235 40.43 92.1235 39.158C92.1235 37.874 92.5315 36.806 93.3475 35.954C94.1755 35.102 95.1835 34.676 96.3715 34.676C97.5235 34.676 98.4895 35.102 99.2695 35.954ZM98.8195 41.354C99.4195 40.778 99.7195 40.046 99.7195 39.158C99.7195 38.27 99.4195 37.544 98.8195 36.98C98.2315 36.404 97.5055 36.116 96.6415 36.116C95.7775 36.116 95.0455 36.404 94.4455 36.98C93.8575 37.544 93.5635 38.27 93.5635 39.158C93.5635 40.046 93.8575 40.778 94.4455 41.354C95.0455 41.918 95.7775 42.2 96.6415 42.2C97.5055 42.2 98.2315 41.918 98.8195 41.354ZM99.7195 44.18V35H101.159V44.18C101.159 45.344 100.733 46.292 99.8815 47.024C99.0415 47.756 97.9855 48.122 96.7135 48.122C95.7415 48.122 94.8595 47.87 94.0675 47.366C93.2875 46.862 92.7055 46.172 92.3215 45.296L93.5815 44.594C93.8575 45.23 94.2715 45.734 94.8235 46.106C95.3755 46.478 95.9935 46.664 96.6775 46.664C97.5415 46.664 98.2615 46.43 98.8375 45.962C99.4255 45.494 99.7195 44.9 99.7195 44.18ZM103.241 44V30.5H104.681V44H103.241ZM114.317 38.816C114.245 37.976 113.903 37.298 113.291 36.782C112.679 36.266 111.941 36.008 111.077 36.008C110.249 36.008 109.535 36.266 108.935 36.782C108.347 37.286 107.999 37.964 107.891 38.816H114.317ZM107.891 40.13C107.999 40.982 108.359 41.666 108.971 42.182C109.583 42.698 110.309 42.956 111.149 42.956C111.797 42.956 112.385 42.806 112.913 42.506C113.441 42.194 113.837 41.768 114.101 41.228L115.433 41.75C115.037 42.542 114.455 43.172 113.687 43.64C112.931 44.096 112.091 44.324 111.167 44.324C109.823 44.324 108.689 43.868 107.765 42.956C106.853 42.032 106.397 40.874 106.397 39.482C106.397 38.09 106.847 36.938 107.747 36.026C108.647 35.102 109.751 34.64 111.059 34.64C112.379 34.64 113.495 35.09 114.407 35.99C115.319 36.878 115.775 38 115.775 39.356C115.775 39.572 115.745 39.83 115.685 40.13H107.891ZM127.443 32.804H123.771V38.33H127.443C128.331 38.33 129.075 38.066 129.675 37.538C130.275 36.998 130.575 36.332 130.575 35.54C130.575 34.748 130.275 34.094 129.675 33.578C129.075 33.062 128.331 32.804 127.443 32.804ZM127.443 39.734H123.771V44H122.331V31.4H127.623C128.871 31.4 129.915 31.796 130.755 32.588C131.595 33.368 132.015 34.352 132.015 35.54C132.015 36.704 131.571 37.694 130.683 38.51C129.795 39.326 128.715 39.734 127.443 39.734ZM133.581 44V30.5H135.021V44H133.581ZM142.569 39.842L139.995 40.148C138.783 40.292 138.177 40.754 138.177 41.534C138.177 41.942 138.345 42.272 138.681 42.524C139.017 42.764 139.467 42.884 140.031 42.884C140.799 42.884 141.411 42.656 141.867 42.2C142.335 41.744 142.569 41.144 142.569 40.4H143.199C143.199 41.492 142.863 42.398 142.191 43.118C141.519 43.838 140.679 44.198 139.671 44.198C138.819 44.198 138.111 43.958 137.547 43.478C136.995 42.986 136.719 42.356 136.719 41.588C136.731 40.844 136.995 40.238 137.511 39.77C138.039 39.29 138.765 38.996 139.689 38.888L142.569 38.564V38.204C142.569 37.652 142.353 37.172 141.921 36.764C141.489 36.356 140.961 36.152 140.337 36.152C139.773 36.152 139.275 36.302 138.843 36.602C138.411 36.902 138.129 37.292 137.997 37.772L136.665 37.34C136.893 36.584 137.337 35.972 137.997 35.504C138.657 35.036 139.407 34.802 140.247 34.802C141.267 34.802 142.149 35.126 142.893 35.774C143.637 36.41 144.009 37.172 144.009 38.06V44H142.569V39.842ZM152.409 35H154.011L148.773 47.6H147.171L148.683 43.676L145.101 35H146.703L149.547 42.056L152.409 35Z" fill="white"/>
<defs>
<clipPath id="clip0_426_1512">
<rect width="30" height="33" fill="white" transform="translate(15 10)"/>
</clipPath>
</defs>
</svg>
